<svg width="512" height="512" viewBox="0 0 512 512" fill="none" xmlns="http://www.w3.org/2000/svg">
<circle cx="256" cy="256" r="256" fill="white"/>
<path d="M255.849 435.264C288.981 435.264 318.786 414.465 321.121 381.415C322.758 358.244 300.995 333.549 295.556 323.759C290.117 313.968 307.251 304.721 307.251 288.675C307.251 272.629 289.182 261.479 272.167 261.479" stroke="black" stroke-width="0.5" stroke-linecap="round"/>
<path d="M255.937 435.264C222.806 435.264 193.001 414.465 190.666 381.415C189.028 358.244 210.791 333.549 216.23 323.759C221.67 313.968 204.536 304.721 204.536 288.675C204.536 272.629 222.604 261.479 239.619 261.479" stroke="black" stroke-width="0.5" stroke-linecap="round"/>
<rect x="231.622" y="371.059" width="48.9976" height="16.3618" rx="5.75" stroke="black" stroke-width="0.5" stroke-linecap="round"/>
<circle cx="255.849" cy="320.767" r="20.9633" stroke="black" stroke-width="0.5" stroke-linecap="round"/>
<path d="M237.084 114.955C236.707 115.987 235.43 117.228 235.43 117.228C235.43 117.228 232.84 117.527 231.296 117.022C229.889 116.562 229.027 116.221 227.989 115.162C226.852 114 226.197 113.04 225.922 111.441C225.632 109.75 225.68 109.829 225.922 108.134C226.164 106.439 228.403 104.207 228.403 104.207C228.403 104.207 229.137 104.984 229.643 105.447C231.493 107.141 233.57 108.547 233.57 108.547C233.57 108.547 236.635 110.264 237.084 111.441C237.573 112.726 237.553 113.668 237.084 114.955Z" fill="#A5CF4E"/>
<path d="M244.864 377.401L244.864 133.764C244.864 133.764 244.8 131.727 244.525 130.457C244.179 128.861 243.959 127.908 243.078 126.53C242.37 125.423 240.597 123.223 240.597 123.223C240.597 123.223 237.448 119.569 235.43 117.228M235.43 117.228C235.43 117.228 236.707 115.987 237.084 114.955C237.553 113.668 237.573 112.726 237.084 111.441C236.635 110.264 233.57 108.547 233.57 108.547C233.57 108.547 231.493 107.141 229.643 105.447C229.137 104.984 228.403 104.207 228.403 104.207C228.403 104.207 226.164 106.439 225.922 108.134C225.68 109.829 225.632 109.75 225.922 111.441C226.197 113.04 226.852 114 227.989 115.162C229.027 116.221 229.889 116.562 231.296 117.022C232.84 117.527 235.43 117.228 235.43 117.228Z" stroke="black" stroke-width="0.5" stroke-linecap="round"/>
<path d="M241.751 101.477C241.374 102.567 240.096 103.876 240.096 103.876C240.096 103.876 237.506 104.193 235.962 103.662C234.555 103.178 233.693 102.819 232.656 101.703C231.519 100.479 230.865 99.4666 230.591 97.7811C230.301 95.9981 230.349 96.0814 230.592 94.2936C230.835 92.5059 233.074 90.1503 233.074 90.1503C233.074 90.1503 233.809 90.9698 234.314 91.4571C236.163 93.2417 238.24 94.7233 238.24 94.7233C238.24 94.7233 241.304 96.5311 241.752 97.772C242.241 99.1269 242.22 100.12 241.751 101.477Z" fill="#A5CF4E"/>
<path d="M249.411 378.228L249.522 121.306C249.522 121.306 249.459 119.158 249.185 117.819C248.84 116.136 248.62 115.131 247.739 113.679C247.032 112.512 245.261 110.193 245.261 110.193C245.261 110.193 242.113 106.343 240.096 103.876M240.096 103.876C240.096 103.876 241.374 102.567 241.751 101.477C242.22 100.12 242.241 99.1269 241.752 97.772C241.304 96.5311 238.24 94.7233 238.24 94.7233C238.24 94.7233 236.163 93.2417 234.314 91.4571C233.809 90.9698 233.074 90.1503 233.074 90.1503C233.074 90.1503 230.835 92.5059 230.592 94.2936C230.349 96.0814 230.301 95.9981 230.591 97.7811C230.865 99.4666 231.519 100.479 232.656 101.703C233.693 102.819 234.555 103.178 235.962 103.662C237.506 104.193 240.096 103.876 240.096 103.876Z" stroke="black" stroke-width="0.5" stroke-linecap="round"/>
<path d="M248.242 88.6871C247.865 89.8272 246.587 91.1987 246.587 91.1987C246.587 91.1987 243.997 91.5317 242.453 90.977C241.046 90.4715 240.184 90.0964 239.147 88.9292C238.011 87.6497 237.357 86.5903 237.084 84.8267C236.794 82.961 236.843 83.0481 237.086 81.1771C237.33 79.306 239.57 76.8394 239.57 76.8394C239.57 76.8394 240.305 77.6965 240.809 78.2061C242.658 80.0723 244.734 81.6214 244.734 81.6214C244.734 81.6214 247.798 83.5111 248.245 84.8095C248.734 86.227 248.712 87.2667 248.242 88.6871Z" fill="#A5CF4E"/>
<path d="M253.958 379.055L254.169 110.189C254.169 110.189 254.033 108.054 253.826 106.701C253.551 104.901 253.363 103.884 252.793 102.153C252.125 100.131 251.531 99.0686 250.519 97.1928C249.189 94.7298 248.603 93.7788 246.587 91.1987M246.587 91.1987C246.587 91.1987 247.865 89.8272 248.242 88.6871C248.712 87.2666 248.734 86.227 248.245 84.8095C247.798 83.5111 244.734 81.6215 244.734 81.6215C244.734 81.6215 242.658 80.0723 240.809 78.2061C240.305 77.6965 239.57 76.8394 239.57 76.8394C239.57 76.8394 237.33 79.306 237.086 81.1771C236.843 83.0481 236.794 82.961 237.084 84.8267C237.357 86.5903 238.011 87.6497 239.147 88.9292C240.184 90.0963 241.046 90.4715 242.453 90.977C243.997 91.5317 246.587 91.1987 246.587 91.1987Z" stroke="black" stroke-width="0.5" stroke-linecap="round"/>
<path d="M264.149 88.6871C264.527 89.8272 265.805 91.1987 265.805 91.1987C265.805 91.1987 268.395 91.5317 269.939 90.977C271.346 90.4715 272.208 90.0964 273.244 88.9292C274.381 87.6497 275.035 86.5903 275.308 84.8267C275.597 82.961 275.549 83.0481 275.305 81.1771C275.062 79.306 272.821 76.8394 272.821 76.8394C272.821 76.8394 272.087 77.6965 271.582 78.2061C269.734 80.0723 267.658 81.6214 267.658 81.6214C267.658 81.6214 264.594 83.5111 264.146 84.8095C263.658 86.227 263.68 87.2667 264.149 88.6871Z" fill="#A5CF4E"/>
<path d="M258.433 379.055L258.223 110.189C258.223 110.189 258.359 108.054 258.566 106.701C258.841 104.901 259.028 103.884 259.599 102.153C260.266 100.131 260.86 99.0686 261.873 97.1928C263.202 94.7298 263.789 93.7788 265.805 91.1987M265.805 91.1987C265.805 91.1987 264.527 89.8272 264.149 88.6871C263.68 87.2666 263.658 86.227 264.146 84.8095C264.594 83.5111 267.658 81.6215 267.658 81.6215C267.658 81.6215 269.734 80.0723 271.582 78.2061C272.087 77.6965 272.821 76.8394 272.821 76.8394C272.821 76.8394 275.062 79.306 275.305 81.1771C275.549 83.0481 275.597 82.961 275.308 84.8267C275.035 86.5903 274.381 87.6497 273.244 88.9292C272.208 90.0963 271.346 90.4715 269.939 90.977C268.395 91.5317 265.805 91.1987 265.805 91.1987Z" stroke="black" stroke-width="0.5" stroke-linecap="round"/>
<path d="M270.759 101.891C271.136 102.98 272.414 104.29 272.414 104.29C272.414 104.29 275.004 104.606 276.547 104.075C277.954 103.591 278.817 103.232 279.854 102.116C280.991 100.893 281.645 99.88 281.919 98.1945C282.209 96.4115 282.16 96.4947 281.917 94.707C281.675 92.9192 279.435 90.5637 279.435 90.5637C279.435 90.5637 278.701 91.3832 278.196 91.8705C276.347 93.6551 274.27 95.1367 274.27 95.1367C274.27 95.1367 271.205 96.9445 270.757 98.1854C270.269 99.5403 270.29 100.534 270.759 101.891Z" fill="#A5CF4E"/>
<path d="M263.098 378.641L262.988 121.719C262.988 121.719 263.051 119.571 263.325 118.232C263.67 116.549 263.889 115.544 264.77 114.092C265.478 112.926 267.249 110.607 267.249 110.607C267.249 110.607 270.397 106.757 272.414 104.29M272.414 104.29C272.414 104.29 271.136 102.98 270.759 101.891C270.29 100.534 270.269 99.5403 270.757 98.1854C271.205 96.9445 274.27 95.1367 274.27 95.1367C274.27 95.1367 276.347 93.6551 278.196 91.8705C278.701 91.3832 279.435 90.5637 279.435 90.5637C279.435 90.5637 281.675 92.9192 281.917 94.707C282.16 96.4947 282.209 96.4115 281.919 98.1945C281.645 99.88 280.991 100.893 279.854 102.116C278.817 103.232 277.954 103.591 276.547 104.075C275.004 104.606 272.414 104.29 272.414 104.29Z" stroke="black" stroke-width="0.5" stroke-linecap="round"/>
<path d="M275.301 114.955C275.678 115.987 276.955 117.228 276.955 117.228C276.955 117.228 279.545 117.527 281.089 117.022C282.496 116.562 283.358 116.221 284.396 115.162C285.533 114 286.188 113.04 286.463 111.441C286.754 109.75 286.705 109.829 286.463 108.134C286.221 106.439 283.983 104.207 283.983 104.207C283.983 104.207 283.248 104.984 282.742 105.447C280.892 107.141 278.815 108.547 278.815 108.547C278.815 108.547 275.75 110.264 275.301 111.441C274.812 112.726 274.833 113.668 275.301 114.955Z" fill="#A5CF4E"/>
<path d="M267.522 377.401L267.522 133.764C267.522 133.764 267.585 131.727 267.86 130.457C268.206 128.861 268.426 127.908 269.307 126.53C270.015 125.423 271.788 123.223 271.788 123.223C271.788 123.223 274.937 119.569 276.955 117.228M276.955 117.228C276.955 117.228 275.678 115.987 275.301 114.955C274.833 113.668 274.812 112.726 275.301 111.441C275.75 110.264 278.815 108.547 278.815 108.547C278.815 108.547 280.892 107.141 282.742 105.447C283.248 104.984 283.983 104.207 283.983 104.207C283.983 104.207 286.221 106.439 286.463 108.134C286.705 109.829 286.754 109.75 286.463 111.441C286.188 113.04 285.533 114 284.396 115.162C283.358 116.221 282.496 116.562 281.089 117.022C279.545 117.527 276.955 117.228 276.955 117.228Z" stroke="black" stroke-width="0.5" stroke-linecap="round"/>
<rect x="71.8352" y="299.865" width="12.6687" height="70.6111" fill="white" stroke="black" stroke-width="0.5"/>
<rect x="85.004" y="299.865" width="12.6687" height="70.6111" fill="white" stroke="black" stroke-width="0.5"/>
<rect x="81.4619" y="299.615" width="6.58436" height="38.8477" fill="black"/>
<rect x="98.1727" y="299.865" width="12.6687" height="70.6111" fill="white" stroke="black" stroke-width="0.5"/>
<rect x="111.341" y="299.865" width="12.6687" height="70.6111" fill="white" stroke="black" stroke-width="0.5"/>
<rect x="124.51" y="299.865" width="12.6687" height="70.6111" fill="white" stroke="black" stroke-width="0.5"/>
<rect x="137.679" y="299.865" width="12.6687" height="70.6111" fill="white" stroke="black" stroke-width="0.5"/>
<rect x="94.6306" y="299.615" width="6.58436" height="38.8477" fill="black"/>
<rect x="120.968" y="299.615" width="6.58436" height="38.8477" fill="black"/>
<rect x="134.137" y="299.615" width="6.58436" height="38.8477" fill="black"/>
<rect x="150.848" y="299.865" width="12.6687" height="70.6111" fill="white" stroke="black" stroke-width="0.5"/>
<rect x="147.305" y="299.615" width="6.58436" height="38.8477" fill="black"/>
<rect x="243.029" y="299.865" width="12.6687" height="70.6111" fill="white" stroke="black" stroke-width="0.5"/>
<rect x="164.017" y="299.865" width="12.6687" height="70.6111" fill="white" stroke="black" stroke-width="0.5"/>
<rect x="177.185" y="299.865" width="12.6687" height="70.6111" fill="white" stroke="black" stroke-width="0.5"/>
<rect x="190.354" y="299.865" width="12.6687" height="70.6111" fill="white" stroke="black" stroke-width="0.5"/>
<rect x="203.523" y="299.865" width="12.6687" height="70.6111" fill="white" stroke="black" stroke-width="0.5"/>
<rect x="216.691" y="299.865" width="12.6687" height="70.6111" fill="white" stroke="black" stroke-width="0.5"/>
<rect x="229.86" y="299.865" width="12.6687" height="70.6111" fill="white" stroke="black" stroke-width="0.5"/>
<rect x="173.643" y="299.615" width="6.58436" height="38.8477" fill="black"/>
<rect x="186.812" y="299.615" width="6.58436" height="38.8477" fill="black"/>
<rect x="213.149" y="299.615" width="6.58436" height="38.8477" fill="black"/>
<rect x="226.318" y="299.615" width="6.58436" height="38.8477" fill="black"/>
<rect x="239.487" y="299.615" width="6.58436" height="38.8477" fill="black"/>
<rect x="256.198" y="299.865" width="12.6687" height="70.6111" fill="white" stroke="black" stroke-width="0.5"/>
<rect x="269.366" y="299.865" width="12.6687" height="70.6111" fill="white" stroke="black" stroke-width="0.5"/>
<rect x="265.824" y="299.615" width="6.58436" height="38.8477" fill="black"/>
<rect x="282.535" y="299.865" width="12.6687" height="70.6111" fill="white" stroke="black" stroke-width="0.5"/>
<rect x="295.704" y="299.865" width="12.6687" height="70.6111" fill="white" stroke="black" stroke-width="0.5"/>
<rect x="308.872" y="299.865" width="12.6687" height="70.6111" fill="white" stroke="black" stroke-width="0.5"/>
<rect x="322.041" y="299.865" width="12.6687" height="70.6111" fill="white" stroke="black" stroke-width="0.5"/>
<rect x="278.992" y="299.615" width="6.58436" height="38.8477" fill="black"/>
<rect x="305.33" y="299.615" width="6.58436" height="38.8477" fill="black"/>
<rect x="318.499" y="299.615" width="6.58436" height="38.8477" fill="black"/>
<rect x="335.21" y="299.865" width="12.6687" height="70.6111" fill="white" stroke="black" stroke-width="0.5"/>
<rect x="331.668" y="299.615" width="6.58436" height="38.8477" fill="black"/>
<rect x="427.391" y="299.865" width="12.6687" height="70.6111" fill="white" stroke="black" stroke-width="0.5"/>
<rect x="348.378" y="299.865" width="12.6687" height="70.6111" fill="white" stroke="black" stroke-width="0.5"/>
<rect x="361.547" y="299.865" width="12.6687" height="70.6111" fill="white" stroke="black" stroke-width="0.5"/>
<rect x="374.716" y="299.865" width="12.6687" height="70.6111" fill="white" stroke="black" stroke-width="0.5"/>
<rect x="387.885" y="299.865" width="12.6687" height="70.6111" fill="white" stroke="black" stroke-width="0.5"/>
<rect x="401.054" y="299.865" width="12.6687" height="70.6111" fill="white" stroke="black" stroke-width="0.5"/>
<rect x="414.222" y="299.865" width="12.6687" height="70.6111" fill="white" stroke="black" stroke-width="0.5"/>
<rect x="358.005" y="299.615" width="6.58436" height="38.8477" fill="black"/>
<rect x="371.174" y="299.615" width="6.58436" height="38.8477" fill="black"/>
<rect x="397.511" y="299.615" width="6.58436" height="38.8477" fill="black"/>
<rect x="410.68" y="299.615" width="6.58436" height="38.8477" fill="black"/>
<rect x="423.849" y="299.615" width="6.58436" height="38.8477" fill="black"/>
</svg>
